<svg xmlns="http://www.w3.org/2000/svg" xmlns:xlink="http://www.w3.org/1999/xlink" width="19.998" height="20.002" viewBox="0 0 19.998 20.002"><defs><clipPath id="a"><rect width="19.998" height="20.002" fill="none"/></clipPath></defs><g clip-path="url(#a)"><path d="M22826,18596h-8a6.006,6.006,0,0,1-6-6V18582a6.006,6.006,0,0,1,6-6h8a6.006,6.006,0,0,1,6,6v8.006A6.006,6.006,0,0,1,22826,18596Zm-9.107-11.424a1.253,1.253,0,0,0-.887,2.137l3.982,3.977a1.23,1.23,0,0,0,.883.367,1.243,1.243,0,0,0,.883-.367.155.155,0,0,0,.029-.035l6.158-6.154a1.25,1.25,0,0,0-.883-2.135,1.257,1.257,0,0,0-.887.365l-5.3,5.307-3.094-3.1A1.242,1.242,0,0,0,22816.893,18584.58Z" transform="translate(-22812.002 -18576.002)" fill="#157ee1"/></g></svg>