<svg xmlns="http://www.w3.org/2000/svg" xmlns:xlink="http://www.w3.org/1999/xlink" width="666" height="92" viewBox="0 0 666 92"><defs><clipPath id="b"><rect width="666" height="92"/></clipPath></defs><g id="a" clip-path="url(#b)"><g transform="translate(438)"><rect width="24" height="24" fill="rgba(255,255,255,0)"/><path d="M12,2A10,10,0,1,0,22,12,9.991,9.991,0,0,0,12,2Zm5,13.59L15.59,17,12,13.41,8.41,17,7,15.59,10.59,12,7,8.41,8.41,7,12,10.59,15.59,7,17,8.41,13.41,12Z" fill="#a4a4a4"/></g><g transform="translate(438 34)"><rect width="24" height="24" fill="rgba(255,255,255,0)"/><path d="M12,2A10,10,0,1,0,22,12,9.991,9.991,0,0,0,12,2Zm5,13.59L15.59,17,12,13.41,8.41,17,7,15.59,10.59,12,7,8.41,8.41,7,12,10.59,15.59,7,17,8.41,13.41,12Z" fill="#1c1a1a"/></g><g transform="translate(438 68)"><rect width="24" height="24" fill="rgba(255,255,255,0)"/><path d="M12,2A10,10,0,1,0,22,12,9.991,9.991,0,0,0,12,2Zm5,13.59L15.59,17,12,13.41,8.41,17,7,15.59,10.59,12,7,8.41,8.41,7,12,10.59,15.59,7,17,8.41,13.41,12Z" fill="#fff"/></g><g transform="translate(472)"><rect width="24" height="24" fill="rgba(255,255,255,0)"/><path d="M4,11H16.17L10.58,5.41,12,4l8,8-8,8-1.41-1.41L16.17,13H4Z" fill="#474f65"/></g><g transform="translate(472 34)"><rect width="24" height="24" fill="rgba(255,255,255,0)"/><path d="M4,11H16.17L10.58,5.41,12,4l8,8-8,8-1.41-1.41L16.17,13H4Z" fill="#a4a4a4"/></g><g transform="translate(506)"><rect width="24" height="24" fill="rgba(255,255,255,0)"/><path d="M20,11H7.83l5.59-5.59L12,4,4,12l8,8,1.41-1.41L7.83,13H20Z" fill="#a4a4a4"/></g><g transform="translate(506 34)"><rect width="24" height="24" fill="rgba(255,255,255,0)"/><path d="M20,11H7.83l5.59-5.59L12,4,4,12l8,8,1.41-1.41L7.83,13H20Z" fill="#474f65"/></g><g transform="translate(540)"><rect width="24" height="24" fill="rgba(255,255,255,0)"/><path d="M15.864,14.321h-.813l-.288-.278a6.7,6.7,0,1,0-.72.72l.278.288v.813L19.467,21,21,19.467Zm-6.175,0A4.631,4.631,0,1,1,14.321,9.69,4.625,4.625,0,0,1,9.69,14.321Z" transform="translate(0.001)" fill="#474f65"/></g><g transform="translate(642)"><rect width="24" height="24" fill="rgba(255,255,255,0)"/><path d="M16,6l2.29,2.29-4.88,4.88-4-4L2,16.59,3.41,18l6-6,4,4,6.3-6.29L22,12V6Z" transform="translate(0)" fill="#3798f3"/></g><g transform="translate(642 34)"><rect width="24" height="24" fill="rgba(255,255,255,0)"/><path d="M16,6l2.29,2.29-4.88,4.88-4-4L2,16.59,3.41,18l6-6,4,4,6.3-6.29L22,12V6Z" transform="translate(0)" fill="#474f65"/></g><g transform="translate(574)"><rect width="24" height="24" fill="rgba(255,255,255,0)"/><g transform="translate(0 2)"><path d="M20,6H12L10,4H4A2,2,0,0,0,2.01,6L2,18a2.006,2.006,0,0,0,2,2H20a2.006,2.006,0,0,0,2-2V8A2.006,2.006,0,0,0,20,6Zm0,12H4V8H20Z" transform="translate(-2 -4)" fill="#3798f3"/><path d="M10,4H4A2,2,0,0,0,2.01,6L2,18a2.006,2.006,0,0,0,2,2H20a2.006,2.006,0,0,0,2-2V8a2.006,2.006,0,0,0-2-2H12Z" transform="translate(2 1)" fill="#3798f3"/></g></g><g transform="translate(574 34)"><rect width="24" height="24" fill="rgba(255,255,255,0)"/><g transform="translate(0 2)"><path d="M20,6H12L10,4H4A2,2,0,0,0,2.01,6L2,18a2.006,2.006,0,0,0,2,2H20a2.006,2.006,0,0,0,2-2V8A2.006,2.006,0,0,0,20,6Zm0,12H4V8H20Z" transform="translate(-2 -4)" fill="#474f65"/><path d="M10,4H4A2,2,0,0,0,2.01,6L2,18a2.006,2.006,0,0,0,2,2H20a2.006,2.006,0,0,0,2-2V8a2.006,2.006,0,0,0-2-2H12Z" transform="translate(2 1)" fill="#474f65"/></g></g><g transform="translate(340)"><rect width="24" height="24" fill="rgba(255,255,255,0)"/><rect width="24" height="12" fill="rgba(255,255,255,0)"/><rect width="24" height="12" transform="translate(0 12)" fill="rgba(255,255,255,0)"/><path d="M7,14l5-5,5,5Z" transform="translate(0 -6)" fill="#1c1a1a"/><path d="M7,9l5,5,5-5Z" transform="translate(0 7)" fill="#1c1a1a"/></g><g transform="translate(408 2)"><rect width="20" height="20" fill="rgba(255,255,255,0)"/><path d="M18.833,11.333,15.5,8v2.5H3v1.667H15.5v2.5Z" transform="translate(-0.5 -1.333)" fill="#1c1a1a"/></g><g transform="translate(272)"><rect width="24" height="24" fill="rgba(255,255,255,0)"/><path d="M7,10l5,5,5-5Z" fill="#1c1a1a"/></g><g transform="translate(238)"><rect width="24" height="24" fill="rgba(255,255,255,0)"/><path d="M9,11H7v2H9Zm4,0H11v2h2Zm4,0H15v2h2Zm2-7H18V2H16V4H8V2H6V4H5A1.991,1.991,0,0,0,3.01,6L3,20a2,2,0,0,0,2,2H19a2.006,2.006,0,0,0,2-2V6A2.006,2.006,0,0,0,19,4Zm0,16H5V9H19Z" fill="#474f65"/></g><g transform="translate(204)"><circle cx="12" cy="12" r="12" fill="#b536e2"/><path d="M169.756,347.029h5.063l-6.14,4.76h3.987l-9.847,7.24,3.508-5.16h-3.508Z" transform="translate(-156.819 -341.029)" fill="#fff"/></g><g transform="translate(206 36)"><circle cx="10" cy="10" r="10" fill="#b536e2"/><path d="M168.6,347.029h4.219L167.7,351h3.322l-8.206,6.033,2.923-4.3h-2.923Z" transform="translate(-157.819 -342.029)" fill="#fff"/></g><g transform="translate(170)"><circle cx="12" cy="12" r="12" fill="#f2ceff"/><path d="M169.756,347.029h5.063l-6.14,4.76h3.987l-9.847,7.24,3.508-5.16h-3.508Z" transform="translate(-156.819 -341.029)" fill="#b536e2"/></g><g transform="translate(172 36)"><circle cx="10" cy="10" r="10" fill="#f2ceff"/><path d="M168.6,347.029h4.219L167.7,351h3.322l-8.206,6.033,2.923-4.3h-2.923Z" transform="translate(-157.819 -342.029)" fill="#b536e2"/></g><rect width="24" height="24" fill="rgba(255,255,255,0)"/><path d="M12,8a2,2,0,1,0-2-2A2.006,2.006,0,0,0,12,8Zm0,2a2,2,0,1,0,2,2A2.006,2.006,0,0,0,12,10Zm0,6a2,2,0,1,0,2,2A2.006,2.006,0,0,0,12,16Z" fill="#1c1a1a"/><g transform="translate(68)"><rect width="24" height="24" fill="rgba(255,255,255,0)"/><path d="M19,6.41,17.59,5,12,10.59,6.41,5,5,6.41,10.59,12,5,17.59,6.41,19,12,13.41,17.59,19,19,17.59,13.41,12Z" fill="#1c1a1a"/></g><g transform="translate(34)"><rect width="24" height="24" fill="rgba(255,255,255,0)"/><path d="M2,15.5v2H22v-2Zm0-5v2H22v-2Zm0-5v2H22v-2Z" transform="translate(0 0.5)" fill="#1c1a1a"/></g><g transform="translate(102)"><rect width="24" height="24" fill="rgba(255,255,255,0)"/><path d="M10,18h4V16H10ZM3,6V8H21V6Zm3,7H18V11H6Z" fill="#3798f3"/></g><g transform="translate(374)"><rect width="24" height="24" fill="rgba(255,255,255,0)"/><path d="M3,17.25V21H6.75L17.81,9.94,14.06,6.19ZM20.71,7.04a1,1,0,0,0,0-1.41L18.37,3.29a1,1,0,0,0-1.41,0L15.13,5.12l3.75,3.75,1.83-1.83Z" transform="translate(0 0.002)" fill="#3798f3"/></g><g transform="translate(306)"><rect width="24" height="24" fill="rgba(255,255,255,0)"/><path d="M7,14l5-5,5,5Z" transform="translate(0 1)" fill="#1c1a1a"/></g><g transform="translate(608 34)"><rect width="24" height="24" fill="rgba(255,255,255,0)"/><path d="M20,4H4A1.985,1.985,0,0,0,2.01,6L2,18a1.993,1.993,0,0,0,2,2H20a1.993,1.993,0,0,0,2-2V6A1.993,1.993,0,0,0,20,4Zm0,14H4V12H20ZM20,8H4V6H20Z" transform="translate(0 0)" fill="#474f65"/></g><g transform="translate(608)"><rect width="24" height="24" fill="rgba(255,255,255,0)"/><path d="M20,4H4A1.985,1.985,0,0,0,2.01,6L2,18a1.993,1.993,0,0,0,2,2H20a1.993,1.993,0,0,0,2-2V6A1.993,1.993,0,0,0,20,4Zm0,14H4V12H20ZM20,8H4V6H20Z" transform="translate(0 0)" fill="#3798f3"/></g><g transform="translate(136)"><rect width="24" height="24" fill="rgba(255,255,255,0)"/><path d="M3,17v2H9V17ZM3,5V7H13V5ZM13,21V19h8V17H13V15H11v6ZM7,9v2H3v2H7v2H9V9Zm14,4V11H11v2ZM15,9h2V7h4V5H17V3H15Z" fill="#3798f3"/></g></g></svg>