<svg xmlns="http://www.w3.org/2000/svg" width="24" height="24" viewBox="0 0 24 24"><rect width="24" height="24" fill="rgba(255,255,255,0)"/><g transform="translate(0 2)"><path d="M20,6H12L10,4H4A2,2,0,0,0,2.01,6L2,18a2.006,2.006,0,0,0,2,2H20a2.006,2.006,0,0,0,2-2V8A2.006,2.006,0,0,0,20,6Zm0,12H4V8H20Z" transform="translate(-2 -4)" fill="#3798f3"/><path d="M10,4H4A2,2,0,0,0,2.01,6L2,18a2.006,2.006,0,0,0,2,2H20a2.006,2.006,0,0,0,2-2V8a2.006,2.006,0,0,0-2-2H12Z" transform="translate(2 1)" fill="#3798f3"/></g></svg>