<svg xmlns="http://www.w3.org/2000/svg" xmlns:xlink="http://www.w3.org/1999/xlink" width="24" height="24" viewBox="0 0 24 24"><defs><clipPath id="a"><rect width="24" height="24" fill="none"/></clipPath></defs><g clip-path="url(#a)"><rect width="24" height="24" fill="rgba(255,255,255,0)"/><path d="M19,3H12a2,2,0,0,0-2,2V7h2V5h7V19H12V17H10v2a2,2,0,0,0,2,2h7a2.006,2.006,0,0,0,2-2V5A2.006,2.006,0,0,0,19,3Z" fill="#474f65"/><path d="M10.09,15.59,11.5,17l5-5-5-5L10.09,8.41,12.67,11H3v2h9.67Z" transform="translate(18.5 24) rotate(180)" fill="#474f65"/></g></svg>